# xmcd
#
# Track frame offsets:
#	150
#	13804
#	29974
#	47317
#	58378
#	77169
#	88949
#	107620
#	120372
#	142576
#	160986
#	172785
#	184996
#	198161
#	214660
#	226702
#	248114
#	270377
#	281971
#	296523
#
# Disc length: 4176 seconds
#
# Revision: 1
# Processed by: cddbd v1.5.2PL0 Copyright (c) Steve Scherf et al.
# Submitted via: audiograbber 1.83.01
#
DISCID=16104e14
DTITLE=Sylvia Soltau - Country and Beyond
DYEAR=2015
DGENRE=Country
TTITLE0=Purple Roses
TTITLE1=A New Moon An Old Flame And You
TTITLE2=Before The Next Teardrop Falls
TTITLE3=Funnyface
TTITLE4=Blue Misty Mountains
TTITLE5=Beautiful Sunday
TTITLE6=Little White Cross In the Valley
TTITLE7=He Broke Your Memory Last Night
TTITLE8=What Colour Is The Wind
TTITLE9=Sarahs's Memory
TTITLE10=Love Is Like A Butterfly
TTITLE11=I Won't Darken Your Doorway
TTITLE12=I'll Need Someone To Hoild Me When I Cry
TTITLE13=You'd Rather Hold A Bottle
TTITLE14=Getting Friendly With The Blues
TTITLE15=Those Were The Days
TTITLE16=Sometimes When We Touch
TTITLE17=It Dopesn't Matter Anymore
TTITLE18=The Smile Of My Mother
TTITLE19=Part The Waters
EXTD=
EXTT0=
EXTT1=
EXTT2=
EXTT3=
EXTT4=
EXTT5=
EXTT6=
EXTT7=
EXTT8=
EXTT9=
EXTT10=
EXTT11=
EXTT12=
EXTT13=
EXTT14=
EXTT15=
EXTT16=
EXTT17=
EXTT18=
EXTT19=
PLAYORDER=
